<?xml version="1.0" encoding="UTF-8" standalone="no"?>
<!DOCTYPE svg PUBLIC "-//W3C//DTD SVG 1.1//EN"
 "http://www.w3.org/Graphics/SVG/1.1/DTD/svg11.dtd">
<!-- Generated by graphviz version 2.44.1 (20200629.0846)
 -->
<!-- Title: minerva::ImageBuffer Pages: 1 -->
<svg width="120pt" height="151pt"
 viewBox="0.00 0.00 120.00 151.00" xmlns="http://www.w3.org/2000/svg" xmlns:xlink="http://www.w3.org/1999/xlink">
<g id="graph0" class="graph" transform="scale(1 1) rotate(0) translate(4 147)">
<title>minerva::ImageBuffer</title>
<!-- Node1 -->
<g id="node1" class="node">
<title>Node1</title>
<g id="a_node1"><a xlink:title="Buffer specialized for interaction with Image.">
<polygon fill="#bfbfbf" stroke="black" points="2.5,-0.5 2.5,-19.5 109.5,-19.5 109.5,-0.5 2.5,-0.5"/>
<text text-anchor="middle" x="56" y="-7.5" font-family="Helvetica,sans-Serif" font-size="10.00">minerva::ImageBuffer</text>
</a>
</g>
</g>
<!-- Node2 -->
<g id="node2" class="node">
<title>Node2</title>
<g id="a_node2"><a xlink:href="classminerva_1_1_buffer.html" target="_top" xlink:title=" ">
<polygon fill="none" stroke="black" points="0,-56.5 0,-86.5 112,-86.5 112,-56.5 0,-56.5"/>
<text text-anchor="start" x="8" y="-74.5" font-family="Helvetica,sans-Serif" font-size="10.00">minerva::Buffer&lt; Vec4</text>
<text text-anchor="middle" x="56" y="-63.5" font-family="Helvetica,sans-Serif" font-size="10.00">&lt; uint8_t &gt; &gt;</text>
</a>
</g>
</g>
<!-- Node2&#45;&gt;Node1 -->
<g id="edge1" class="edge">
<title>Node2&#45;&gt;Node1</title>
<path fill="none" stroke="midnightblue" d="M56,-46.29C56,-36.86 56,-26.65 56,-19.66"/>
<polygon fill="midnightblue" stroke="midnightblue" points="52.5,-46.4 56,-56.4 59.5,-46.4 52.5,-46.4"/>
</g>
<!-- Node3 -->
<g id="node3" class="node">
<title>Node3</title>
<g id="a_node3"><a xlink:href="classminerva_1_1_buffer_imp.html" target="_top" xlink:title="Base class for Buffer holding the implementation.">
<polygon fill="none" stroke="black" points="8,-123.5 8,-142.5 104,-142.5 104,-123.5 8,-123.5"/>
<text text-anchor="middle" x="56" y="-130.5" font-family="Helvetica,sans-Serif" font-size="10.00">minerva::BufferImp</text>
</a>
</g>
</g>
<!-- Node3&#45;&gt;Node2 -->
<g id="edge2" class="edge">
<title>Node3&#45;&gt;Node2</title>
<path fill="none" stroke="midnightblue" d="M56,-113.23C56,-104.59 56,-94.5 56,-86.52"/>
<polygon fill="midnightblue" stroke="midnightblue" points="52.5,-113.48 56,-123.48 59.5,-113.48 52.5,-113.48"/>
</g>
</g>
</svg>
