<?xml version="1.0" encoding="UTF-8" standalone="no"?>
<!DOCTYPE svg PUBLIC "-//W3C//DTD SVG 1.1//EN"
 "http://www.w3.org/Graphics/SVG/1.1/DTD/svg11.dtd">
<!-- Generated by graphviz version 2.44.1 (20200629.0846)
 -->
<!-- Title: minerva::BufferImp Pages: 1 -->
<svg width="242pt" height="151pt"
 viewBox="0.00 0.00 242.00 151.00" xmlns="http://www.w3.org/2000/svg" xmlns:xlink="http://www.w3.org/1999/xlink">
<g id="graph0" class="graph" transform="scale(1 1) rotate(0) translate(4 147)">
<title>minerva::BufferImp</title>
<!-- Node1 -->
<g id="node1" class="node">
<title>Node1</title>
<g id="a_node1"><a xlink:title="Base class for Buffer holding the implementation.">
<polygon fill="#bfbfbf" stroke="black" points="71,-123.5 71,-142.5 167,-142.5 167,-123.5 71,-123.5"/>
<text text-anchor="middle" x="119" y="-130.5" font-family="Helvetica,sans-Serif" font-size="10.00">minerva::BufferImp</text>
</a>
</g>
</g>
<!-- Node2 -->
<g id="node2" class="node">
<title>Node2</title>
<g id="a_node2"><a xlink:href="classminerva_1_1_buffer.html" target="_top" xlink:title=" ">
<polygon fill="none" stroke="black" points="0,-56.5 0,-86.5 112,-86.5 112,-56.5 0,-56.5"/>
<text text-anchor="start" x="8" y="-74.5" font-family="Helvetica,sans-Serif" font-size="10.00">minerva::Buffer&lt; Vec4</text>
<text text-anchor="middle" x="56" y="-63.5" font-family="Helvetica,sans-Serif" font-size="10.00">&lt; uint8_t &gt; &gt;</text>
</a>
</g>
</g>
<!-- Node1&#45;&gt;Node2 -->
<g id="edge1" class="edge">
<title>Node1&#45;&gt;Node2</title>
<path fill="none" stroke="midnightblue" d="M102.45,-116.37C92.65,-107.11 80.33,-95.48 70.85,-86.52"/>
<polygon fill="midnightblue" stroke="midnightblue" points="100.3,-119.15 109.97,-123.48 105.11,-114.06 100.3,-119.15"/>
</g>
<!-- Node4 -->
<g id="node4" class="node">
<title>Node4</title>
<g id="a_node4"><a xlink:href="classminerva_1_1_buffer.html" target="_top" xlink:title="Buffer managing memory hosted by the CPU presented as an array of type T.">
<polygon fill="none" stroke="black" points="130,-62 130,-81 234,-81 234,-62 130,-62"/>
<text text-anchor="middle" x="182" y="-69" font-family="Helvetica,sans-Serif" font-size="10.00">minerva::Buffer&lt; T &gt;</text>
</a>
</g>
</g>
<!-- Node1&#45;&gt;Node4 -->
<g id="edge3" class="edge">
<title>Node1&#45;&gt;Node4</title>
<path fill="none" stroke="midnightblue" d="M135.6,-116.32C147.57,-105.02 163.27,-90.19 172.99,-81.01"/>
<polygon fill="midnightblue" stroke="midnightblue" points="132.89,-114.06 128.03,-123.48 137.7,-119.15 132.89,-114.06"/>
</g>
<!-- Node3 -->
<g id="node3" class="node">
<title>Node3</title>
<g id="a_node3"><a xlink:href="classminerva_1_1_image_buffer.html" target="_top" xlink:title="Buffer specialized for interaction with Image.">
<polygon fill="none" stroke="black" points="2.5,-0.5 2.5,-19.5 109.5,-19.5 109.5,-0.5 2.5,-0.5"/>
<text text-anchor="middle" x="56" y="-7.5" font-family="Helvetica,sans-Serif" font-size="10.00">minerva::ImageBuffer</text>
</a>
</g>
</g>
<!-- Node2&#45;&gt;Node3 -->
<g id="edge2" class="edge">
<title>Node2&#45;&gt;Node3</title>
<path fill="none" stroke="midnightblue" d="M56,-46.29C56,-36.86 56,-26.65 56,-19.66"/>
<polygon fill="midnightblue" stroke="midnightblue" points="52.5,-46.4 56,-56.4 59.5,-46.4 52.5,-46.4"/>
</g>
</g>
</svg>
