<?xml version="1.0" encoding="UTF-8" standalone="no"?>
<!DOCTYPE svg PUBLIC "-//W3C//DTD SVG 1.1//EN"
 "http://www.w3.org/Graphics/SVG/1.1/DTD/svg11.dtd">
<!-- Generated by graphviz version 2.44.1 (20200629.0846)
 -->
<!-- Title: Graphical Class Hierarchy Pages: 1 -->
<svg width="395pt" height="78pt"
 viewBox="0.00 0.00 395.00 77.50" xmlns="http://www.w3.org/2000/svg" xmlns:xlink="http://www.w3.org/1999/xlink">
<g id="graph0" class="graph" transform="scale(1 1) rotate(0) translate(4 73.5)">
<title>Graphical Class Hierarchy</title>
<!-- Node0 -->
<g id="node1" class="node">
<title>Node0</title>
<g id="a_node1"><a xlink:href="classminerva_1_1_buffer_imp.html" target="_top" xlink:title="Base class for Buffer holding the implementation.">
<polygon fill="none" stroke="black" points="0,-22.5 0,-41.5 96,-41.5 96,-22.5 0,-22.5"/>
<text text-anchor="middle" x="48" y="-29.5" font-family="Helvetica,sans-Serif" font-size="10.00">minerva::BufferImp</text>
</a>
</g>
</g>
<!-- Node1 -->
<g id="node2" class="node">
<title>Node1</title>
<g id="a_node2"><a xlink:href="classminerva_1_1_buffer.html" target="_top" xlink:title=" ">
<polygon fill="none" stroke="black" points="132,-39 132,-69 244,-69 244,-39 132,-39"/>
<text text-anchor="start" x="140" y="-57" font-family="Helvetica,sans-Serif" font-size="10.00">minerva::Buffer&lt; Vec4</text>
<text text-anchor="middle" x="188" y="-46" font-family="Helvetica,sans-Serif" font-size="10.00">&lt; uint8_t &gt; &gt;</text>
</a>
</g>
</g>
<!-- Node0&#45;&gt;Node1 -->
<g id="edge1" class="edge">
<title>Node0&#45;&gt;Node1</title>
<path fill="none" stroke="midnightblue" d="M106.18,-41.12C114.56,-42.45 123.19,-43.83 131.54,-45.16"/>
<polygon fill="midnightblue" stroke="midnightblue" points="106.53,-37.63 96.11,-39.51 105.43,-44.54 106.53,-37.63"/>
</g>
<!-- Node3 -->
<g id="node4" class="node">
<title>Node3</title>
<g id="a_node4"><a xlink:href="classminerva_1_1_buffer.html" target="_top" xlink:title="Buffer managing memory hosted by the CPU presented as an array of type T.">
<polygon fill="none" stroke="black" points="136,-0.5 136,-19.5 240,-19.5 240,-0.5 136,-0.5"/>
<text text-anchor="middle" x="188" y="-7.5" font-family="Helvetica,sans-Serif" font-size="10.00">minerva::Buffer&lt; T &gt;</text>
</a>
</g>
</g>
<!-- Node0&#45;&gt;Node3 -->
<g id="edge3" class="edge">
<title>Node0&#45;&gt;Node3</title>
<path fill="none" stroke="midnightblue" d="M106.2,-22.88C116.03,-21.31 126.19,-19.69 135.86,-18.15"/>
<polygon fill="midnightblue" stroke="midnightblue" points="105.43,-19.46 96.11,-24.49 106.53,-26.37 105.43,-19.46"/>
</g>
<!-- Node2 -->
<g id="node3" class="node">
<title>Node2</title>
<g id="a_node3"><a xlink:href="classminerva_1_1_image_buffer.html" target="_top" xlink:title="Buffer specialized for interaction with Image.">
<polygon fill="none" stroke="black" points="280,-44.5 280,-63.5 387,-63.5 387,-44.5 280,-44.5"/>
<text text-anchor="middle" x="333.5" y="-51.5" font-family="Helvetica,sans-Serif" font-size="10.00">minerva::ImageBuffer</text>
</a>
</g>
</g>
<!-- Node1&#45;&gt;Node2 -->
<g id="edge2" class="edge">
<title>Node1&#45;&gt;Node2</title>
<path fill="none" stroke="midnightblue" d="M254.34,-54C262.83,-54 271.45,-54 279.7,-54"/>
<polygon fill="midnightblue" stroke="midnightblue" points="254.07,-50.5 244.07,-54 254.07,-57.5 254.07,-50.5"/>
</g>
</g>
</svg>
